<mxfile host="app.diagrams.net" agent="Mozilla/5.0 (Windows NT 10.0; Win64; x64) AppleWebKit/537.36 (KHTML, like Gecko) Chrome/140.0.0.0 Safari/537.36" version="28.2.5">
  <diagram name="Сторінка-1" id="jk5VfStsDrHA7A2XFgAp">
    <mxGraphModel dx="918" dy="462" grid="1" gridSize="10" guides="1" tooltips="1" connect="1" arrows="1" fold="1" page="1" pageScale="1" pageWidth="827" pageHeight="1169" math="0" shadow="0">
      <root>
        <mxCell id="0" />
        <mxCell id="1" parent="0" />
        <mxCell id="lTkOZprfKFM3OkyKb2s1-5" value="People" style="swimlane;" parent="1" vertex="1">
          <mxGeometry x="180" y="20" width="220" height="1620" as="geometry" />
        </mxCell>
        <mxCell id="lTkOZprfKFM3OkyKb2s1-14" value="" style="edgeStyle=orthogonalEdgeStyle;rounded=0;orthogonalLoop=1;jettySize=auto;html=1;" parent="lTkOZprfKFM3OkyKb2s1-5" source="lTkOZprfKFM3OkyKb2s1-8" target="lTkOZprfKFM3OkyKb2s1-13" edge="1">
          <mxGeometry relative="1" as="geometry">
            <Array as="points">
              <mxPoint x="108" y="100" />
              <mxPoint x="108" y="100" />
            </Array>
          </mxGeometry>
        </mxCell>
        <mxCell id="lTkOZprfKFM3OkyKb2s1-8" value="" style="shape=ellipse;html=1;fillColor=strokeColor;strokeWidth=2;verticalLabelPosition=bottom;verticalAlignment=top;perimeter=ellipsePerimeter;" parent="lTkOZprfKFM3OkyKb2s1-5" vertex="1">
          <mxGeometry x="93" y="40" width="30" height="30" as="geometry" />
        </mxCell>
        <mxCell id="lTkOZprfKFM3OkyKb2s1-16" value="" style="edgeStyle=orthogonalEdgeStyle;rounded=0;orthogonalLoop=1;jettySize=auto;html=1;" parent="lTkOZprfKFM3OkyKb2s1-5" source="lTkOZprfKFM3OkyKb2s1-13" target="lTkOZprfKFM3OkyKb2s1-15" edge="1">
          <mxGeometry relative="1" as="geometry" />
        </mxCell>
        <mxCell id="lTkOZprfKFM3OkyKb2s1-13" value="Approach the door" style="strokeWidth=2;html=1;shape=mxgraph.flowchart.terminator;whiteSpace=wrap;" parent="lTkOZprfKFM3OkyKb2s1-5" vertex="1">
          <mxGeometry x="48" y="100" width="120" height="50" as="geometry" />
        </mxCell>
        <mxCell id="lTkOZprfKFM3OkyKb2s1-18" value="" style="edgeStyle=orthogonalEdgeStyle;rounded=0;orthogonalLoop=1;jettySize=auto;html=1;" parent="lTkOZprfKFM3OkyKb2s1-5" source="lTkOZprfKFM3OkyKb2s1-15" target="lTkOZprfKFM3OkyKb2s1-17" edge="1">
          <mxGeometry relative="1" as="geometry" />
        </mxCell>
        <mxCell id="lTkOZprfKFM3OkyKb2s1-37" value="[Doors are locked]" style="edgeLabel;html=1;align=center;verticalAlign=middle;resizable=0;points=[];" parent="lTkOZprfKFM3OkyKb2s1-18" vertex="1" connectable="0">
          <mxGeometry x="-0.6123" y="-2" relative="1" as="geometry">
            <mxPoint as="offset" />
          </mxGeometry>
        </mxCell>
        <mxCell id="lTkOZprfKFM3OkyKb2s1-15" value="" style="strokeWidth=2;html=1;shape=mxgraph.flowchart.decision;whiteSpace=wrap;" parent="lTkOZprfKFM3OkyKb2s1-5" vertex="1">
          <mxGeometry x="53" y="180" width="110" height="50" as="geometry" />
        </mxCell>
        <mxCell id="lTkOZprfKFM3OkyKb2s1-20" value="" style="edgeStyle=orthogonalEdgeStyle;rounded=0;orthogonalLoop=1;jettySize=auto;html=1;" parent="lTkOZprfKFM3OkyKb2s1-5" source="lTkOZprfKFM3OkyKb2s1-17" target="lTkOZprfKFM3OkyKb2s1-19" edge="1">
          <mxGeometry relative="1" as="geometry" />
        </mxCell>
        <mxCell id="lTkOZprfKFM3OkyKb2s1-17" value="Unlock the door with the key" style="strokeWidth=2;html=1;shape=mxgraph.flowchart.terminator;whiteSpace=wrap;" parent="lTkOZprfKFM3OkyKb2s1-5" vertex="1">
          <mxGeometry x="48" y="260" width="120" height="50" as="geometry" />
        </mxCell>
        <mxCell id="lTkOZprfKFM3OkyKb2s1-23" value="" style="edgeStyle=orthogonalEdgeStyle;rounded=0;orthogonalLoop=1;jettySize=auto;html=1;" parent="lTkOZprfKFM3OkyKb2s1-5" source="lTkOZprfKFM3OkyKb2s1-19" target="lTkOZprfKFM3OkyKb2s1-21" edge="1">
          <mxGeometry relative="1" as="geometry" />
        </mxCell>
        <mxCell id="lTkOZprfKFM3OkyKb2s1-38" value="[The key is broken]" style="edgeLabel;html=1;align=center;verticalAlign=middle;resizable=0;points=[];" parent="lTkOZprfKFM3OkyKb2s1-23" vertex="1" connectable="0">
          <mxGeometry x="-0.2667" relative="1" as="geometry">
            <mxPoint y="-8" as="offset" />
          </mxGeometry>
        </mxCell>
        <mxCell id="lTkOZprfKFM3OkyKb2s1-19" value="" style="strokeWidth=2;html=1;shape=mxgraph.flowchart.decision;whiteSpace=wrap;" parent="lTkOZprfKFM3OkyKb2s1-5" vertex="1">
          <mxGeometry x="53" y="340" width="110" height="50" as="geometry" />
        </mxCell>
        <mxCell id="lTkOZprfKFM3OkyKb2s1-21" value="Wait for repairs" style="strokeWidth=2;html=1;shape=mxgraph.flowchart.terminator;whiteSpace=wrap;" parent="lTkOZprfKFM3OkyKb2s1-5" vertex="1">
          <mxGeometry x="48" y="420" width="120" height="50" as="geometry" />
        </mxCell>
        <mxCell id="lTkOZprfKFM3OkyKb2s1-26" style="edgeStyle=orthogonalEdgeStyle;rounded=0;orthogonalLoop=1;jettySize=auto;html=1;exitX=0;exitY=0.5;exitDx=0;exitDy=0;exitPerimeter=0;entryX=0;entryY=0.5;entryDx=0;entryDy=0;entryPerimeter=0;" parent="lTkOZprfKFM3OkyKb2s1-5" source="lTkOZprfKFM3OkyKb2s1-21" target="lTkOZprfKFM3OkyKb2s1-13" edge="1">
          <mxGeometry relative="1" as="geometry" />
        </mxCell>
        <mxCell id="lTkOZprfKFM3OkyKb2s1-32" value="" style="edgeStyle=orthogonalEdgeStyle;rounded=0;orthogonalLoop=1;jettySize=auto;html=1;" parent="lTkOZprfKFM3OkyKb2s1-5" source="lTkOZprfKFM3OkyKb2s1-27" target="lTkOZprfKFM3OkyKb2s1-31" edge="1">
          <mxGeometry relative="1" as="geometry" />
        </mxCell>
        <mxCell id="lTkOZprfKFM3OkyKb2s1-27" value="" style="strokeWidth=2;html=1;shape=mxgraph.flowchart.decision;whiteSpace=wrap;" parent="lTkOZprfKFM3OkyKb2s1-5" vertex="1">
          <mxGeometry x="53" y="502" width="110" height="50" as="geometry" />
        </mxCell>
        <mxCell id="lTkOZprfKFM3OkyKb2s1-28" style="edgeStyle=orthogonalEdgeStyle;rounded=0;orthogonalLoop=1;jettySize=auto;html=1;exitX=1;exitY=0.5;exitDx=0;exitDy=0;exitPerimeter=0;entryX=0.5;entryY=0;entryDx=0;entryDy=0;entryPerimeter=0;" parent="lTkOZprfKFM3OkyKb2s1-5" source="lTkOZprfKFM3OkyKb2s1-19" target="lTkOZprfKFM3OkyKb2s1-27" edge="1">
          <mxGeometry relative="1" as="geometry">
            <Array as="points">
              <mxPoint x="178" y="365" />
              <mxPoint x="178" y="480" />
              <mxPoint x="108" y="480" />
            </Array>
          </mxGeometry>
        </mxCell>
        <mxCell id="lTkOZprfKFM3OkyKb2s1-39" value="[The&lt;div&gt;key&lt;/div&gt;&lt;div&gt;isn`t&lt;/div&gt;&lt;div&gt;broken]&lt;/div&gt;" style="edgeLabel;html=1;align=center;verticalAlign=middle;resizable=0;points=[];" parent="lTkOZprfKFM3OkyKb2s1-28" vertex="1" connectable="0">
          <mxGeometry x="-0.6533" relative="1" as="geometry">
            <mxPoint y="17" as="offset" />
          </mxGeometry>
        </mxCell>
        <mxCell id="lTkOZprfKFM3OkyKb2s1-29" style="edgeStyle=orthogonalEdgeStyle;rounded=0;orthogonalLoop=1;jettySize=auto;html=1;exitX=1;exitY=0.5;exitDx=0;exitDy=0;exitPerimeter=0;entryX=1;entryY=0.5;entryDx=0;entryDy=0;entryPerimeter=0;" parent="lTkOZprfKFM3OkyKb2s1-5" source="lTkOZprfKFM3OkyKb2s1-15" target="lTkOZprfKFM3OkyKb2s1-27" edge="1">
          <mxGeometry relative="1" as="geometry">
            <Array as="points">
              <mxPoint x="190" y="205" />
              <mxPoint x="190" y="527" />
            </Array>
          </mxGeometry>
        </mxCell>
        <mxCell id="lTkOZprfKFM3OkyKb2s1-36" value="[Doors&amp;nbsp;&lt;div&gt;arent&lt;/div&gt;&lt;div&gt;locked]&lt;/div&gt;" style="edgeLabel;html=1;align=center;verticalAlign=middle;resizable=0;points=[];" parent="lTkOZprfKFM3OkyKb2s1-29" vertex="1" connectable="0">
          <mxGeometry x="-0.638" y="-1" relative="1" as="geometry">
            <mxPoint as="offset" />
          </mxGeometry>
        </mxCell>
        <mxCell id="lTkOZprfKFM3OkyKb2s1-34" value="" style="edgeStyle=orthogonalEdgeStyle;rounded=0;orthogonalLoop=1;jettySize=auto;html=1;" parent="lTkOZprfKFM3OkyKb2s1-5" source="lTkOZprfKFM3OkyKb2s1-31" target="lTkOZprfKFM3OkyKb2s1-33" edge="1">
          <mxGeometry relative="1" as="geometry" />
        </mxCell>
        <mxCell id="lTkOZprfKFM3OkyKb2s1-31" value="Open the door" style="strokeWidth=2;html=1;shape=mxgraph.flowchart.terminator;whiteSpace=wrap;" parent="lTkOZprfKFM3OkyKb2s1-5" vertex="1">
          <mxGeometry x="48" y="580" width="120" height="50" as="geometry" />
        </mxCell>
        <mxCell id="lTkOZprfKFM3OkyKb2s1-40" value="" style="edgeStyle=orthogonalEdgeStyle;rounded=0;orthogonalLoop=1;jettySize=auto;html=1;" parent="lTkOZprfKFM3OkyKb2s1-5" edge="1">
          <mxGeometry relative="1" as="geometry">
            <mxPoint x="108" y="710" as="sourcePoint" />
            <mxPoint x="106.99999999999989" y="740" as="targetPoint" />
          </mxGeometry>
        </mxCell>
        <mxCell id="lTkOZprfKFM3OkyKb2s1-33" value="Enter the door" style="strokeWidth=2;html=1;shape=mxgraph.flowchart.terminator;whiteSpace=wrap;" parent="lTkOZprfKFM3OkyKb2s1-5" vertex="1">
          <mxGeometry x="48" y="660" width="120" height="50" as="geometry" />
        </mxCell>
        <mxCell id="lTkOZprfKFM3OkyKb2s1-43" value="" style="edgeStyle=orthogonalEdgeStyle;rounded=0;orthogonalLoop=1;jettySize=auto;html=1;" parent="lTkOZprfKFM3OkyKb2s1-5" source="lTkOZprfKFM3OkyKb2s1-35" target="lTkOZprfKFM3OkyKb2s1-41" edge="1">
          <mxGeometry relative="1" as="geometry" />
        </mxCell>
        <mxCell id="lTkOZprfKFM3OkyKb2s1-35" value="Fix the doors?" style="strokeWidth=2;html=1;shape=mxgraph.flowchart.decision;whiteSpace=wrap;" parent="lTkOZprfKFM3OkyKb2s1-5" vertex="1">
          <mxGeometry x="52" y="740" width="110" height="50" as="geometry" />
        </mxCell>
        <mxCell id="lTkOZprfKFM3OkyKb2s1-44" value="" style="edgeStyle=orthogonalEdgeStyle;rounded=0;orthogonalLoop=1;jettySize=auto;html=1;" parent="lTkOZprfKFM3OkyKb2s1-5" source="lTkOZprfKFM3OkyKb2s1-41" target="lTkOZprfKFM3OkyKb2s1-42" edge="1">
          <mxGeometry relative="1" as="geometry" />
        </mxCell>
        <mxCell id="lTkOZprfKFM3OkyKb2s1-41" value="Fix the doors" style="strokeWidth=2;html=1;shape=mxgraph.flowchart.terminator;whiteSpace=wrap;" parent="lTkOZprfKFM3OkyKb2s1-5" vertex="1">
          <mxGeometry x="47" y="820" width="120" height="50" as="geometry" />
        </mxCell>
        <mxCell id="lTkOZprfKFM3OkyKb2s1-46" value="" style="edgeStyle=orthogonalEdgeStyle;rounded=0;orthogonalLoop=1;jettySize=auto;html=1;" parent="lTkOZprfKFM3OkyKb2s1-5" source="lTkOZprfKFM3OkyKb2s1-42" target="lTkOZprfKFM3OkyKb2s1-45" edge="1">
          <mxGeometry relative="1" as="geometry" />
        </mxCell>
        <mxCell id="lTkOZprfKFM3OkyKb2s1-42" value="Unfix the doors" style="strokeWidth=2;html=1;shape=mxgraph.flowchart.terminator;whiteSpace=wrap;" parent="lTkOZprfKFM3OkyKb2s1-5" vertex="1">
          <mxGeometry x="47" y="900" width="120" height="50" as="geometry" />
        </mxCell>
        <mxCell id="lTkOZprfKFM3OkyKb2s1-45" value="" style="strokeWidth=2;html=1;shape=mxgraph.flowchart.decision;whiteSpace=wrap;" parent="lTkOZprfKFM3OkyKb2s1-5" vertex="1">
          <mxGeometry x="52" y="980" width="110" height="50" as="geometry" />
        </mxCell>
        <mxCell id="lTkOZprfKFM3OkyKb2s1-47" style="edgeStyle=orthogonalEdgeStyle;rounded=0;orthogonalLoop=1;jettySize=auto;html=1;exitX=1;exitY=0.5;exitDx=0;exitDy=0;exitPerimeter=0;entryX=1;entryY=0.5;entryDx=0;entryDy=0;entryPerimeter=0;" parent="lTkOZprfKFM3OkyKb2s1-5" source="lTkOZprfKFM3OkyKb2s1-35" target="lTkOZprfKFM3OkyKb2s1-45" edge="1">
          <mxGeometry relative="1" as="geometry" />
        </mxCell>
        <mxCell id="lTkOZprfKFM3OkyKb2s1-51" value="Move away from the door" style="strokeWidth=2;html=1;shape=mxgraph.flowchart.terminator;whiteSpace=wrap;" parent="lTkOZprfKFM3OkyKb2s1-5" vertex="1">
          <mxGeometry x="42" y="1270" width="120" height="50" as="geometry" />
        </mxCell>
        <mxCell id="lTkOZprfKFM3OkyKb2s1-73" value="" style="rounded=0;whiteSpace=wrap;html=1;" parent="lTkOZprfKFM3OkyKb2s1-5" vertex="1">
          <mxGeometry x="42" y="1530" width="323" height="20" as="geometry" />
        </mxCell>
        <mxCell id="lTkOZprfKFM3OkyKb2s1-74" style="edgeStyle=orthogonalEdgeStyle;rounded=0;orthogonalLoop=1;jettySize=auto;html=1;entryX=0.183;entryY=0.056;entryDx=0;entryDy=0;entryPerimeter=0;" parent="lTkOZprfKFM3OkyKb2s1-5" source="lTkOZprfKFM3OkyKb2s1-51" target="lTkOZprfKFM3OkyKb2s1-73" edge="1">
          <mxGeometry relative="1" as="geometry" />
        </mxCell>
        <mxCell id="lTkOZprfKFM3OkyKb2s1-6" value="Closer system" style="swimlane;" parent="1" vertex="1">
          <mxGeometry x="400" y="20" width="200" height="1620" as="geometry" />
        </mxCell>
        <mxCell id="lTkOZprfKFM3OkyKb2s1-49" value="" style="rounded=0;whiteSpace=wrap;html=1;" parent="lTkOZprfKFM3OkyKb2s1-6" vertex="1">
          <mxGeometry x="-173" y="1060" width="323" height="20" as="geometry" />
        </mxCell>
        <mxCell id="lTkOZprfKFM3OkyKb2s1-57" value="" style="edgeStyle=orthogonalEdgeStyle;rounded=0;orthogonalLoop=1;jettySize=auto;html=1;" parent="lTkOZprfKFM3OkyKb2s1-6" source="lTkOZprfKFM3OkyKb2s1-53" target="lTkOZprfKFM3OkyKb2s1-56" edge="1">
          <mxGeometry relative="1" as="geometry" />
        </mxCell>
        <mxCell id="lTkOZprfKFM3OkyKb2s1-61" value="The doors isn`t closed" style="edgeLabel;html=1;align=center;verticalAlign=middle;resizable=0;points=[];" parent="lTkOZprfKFM3OkyKb2s1-57" vertex="1" connectable="0">
          <mxGeometry x="-0.607" y="-1" relative="1" as="geometry">
            <mxPoint as="offset" />
          </mxGeometry>
        </mxCell>
        <mxCell id="lTkOZprfKFM3OkyKb2s1-75" style="edgeStyle=orthogonalEdgeStyle;rounded=0;orthogonalLoop=1;jettySize=auto;html=1;exitX=0;exitY=0.5;exitDx=0;exitDy=0;exitPerimeter=0;" parent="lTkOZprfKFM3OkyKb2s1-6" source="lTkOZprfKFM3OkyKb2s1-53" edge="1">
          <mxGeometry relative="1" as="geometry">
            <mxPoint x="20" y="1530" as="targetPoint" />
          </mxGeometry>
        </mxCell>
        <mxCell id="lTkOZprfKFM3OkyKb2s1-53" value="" style="strokeWidth=2;html=1;shape=mxgraph.flowchart.decision;whiteSpace=wrap;" parent="lTkOZprfKFM3OkyKb2s1-6" vertex="1">
          <mxGeometry x="41" y="1110" width="110" height="50" as="geometry" />
        </mxCell>
        <mxCell id="lTkOZprfKFM3OkyKb2s1-55" value="" style="endArrow=classic;html=1;rounded=0;exitX=0.165;exitY=1.006;exitDx=0;exitDy=0;exitPerimeter=0;" parent="lTkOZprfKFM3OkyKb2s1-6" edge="1">
          <mxGeometry width="50" height="50" relative="1" as="geometry">
            <mxPoint x="94.80000000000001" y="1080" as="sourcePoint" />
            <mxPoint x="94.80000000000001" y="1110" as="targetPoint" />
          </mxGeometry>
        </mxCell>
        <mxCell id="lTkOZprfKFM3OkyKb2s1-63" value="" style="edgeStyle=orthogonalEdgeStyle;rounded=0;orthogonalLoop=1;jettySize=auto;html=1;" parent="lTkOZprfKFM3OkyKb2s1-6" source="lTkOZprfKFM3OkyKb2s1-56" target="lTkOZprfKFM3OkyKb2s1-62" edge="1">
          <mxGeometry relative="1" as="geometry" />
        </mxCell>
        <mxCell id="lTkOZprfKFM3OkyKb2s1-56" value="Start closing the door" style="strokeWidth=2;html=1;shape=mxgraph.flowchart.terminator;whiteSpace=wrap;" parent="lTkOZprfKFM3OkyKb2s1-6" vertex="1">
          <mxGeometry x="36" y="1190" width="120" height="50" as="geometry" />
        </mxCell>
        <mxCell id="lTkOZprfKFM3OkyKb2s1-66" value="" style="edgeStyle=orthogonalEdgeStyle;rounded=0;orthogonalLoop=1;jettySize=auto;html=1;" parent="lTkOZprfKFM3OkyKb2s1-6" source="lTkOZprfKFM3OkyKb2s1-62" target="lTkOZprfKFM3OkyKb2s1-65" edge="1">
          <mxGeometry relative="1" as="geometry" />
        </mxCell>
        <mxCell id="lTkOZprfKFM3OkyKb2s1-67" value="Obstacle detected" style="edgeLabel;html=1;align=center;verticalAlign=middle;resizable=0;points=[];" parent="lTkOZprfKFM3OkyKb2s1-66" vertex="1" connectable="0">
          <mxGeometry x="-0.3242" y="-1" relative="1" as="geometry">
            <mxPoint x="1" y="-5" as="offset" />
          </mxGeometry>
        </mxCell>
        <mxCell id="lTkOZprfKFM3OkyKb2s1-62" value="" style="strokeWidth=2;html=1;shape=mxgraph.flowchart.decision;whiteSpace=wrap;" parent="lTkOZprfKFM3OkyKb2s1-6" vertex="1">
          <mxGeometry x="41" y="1270" width="110" height="50" as="geometry" />
        </mxCell>
        <mxCell id="lTkOZprfKFM3OkyKb2s1-69" value="" style="edgeStyle=orthogonalEdgeStyle;rounded=0;orthogonalLoop=1;jettySize=auto;html=1;" parent="lTkOZprfKFM3OkyKb2s1-6" source="lTkOZprfKFM3OkyKb2s1-65" target="lTkOZprfKFM3OkyKb2s1-68" edge="1">
          <mxGeometry relative="1" as="geometry" />
        </mxCell>
        <mxCell id="lTkOZprfKFM3OkyKb2s1-65" value="Wait for the obstacle to be removed" style="strokeWidth=2;html=1;shape=mxgraph.flowchart.terminator;whiteSpace=wrap;" parent="lTkOZprfKFM3OkyKb2s1-6" vertex="1">
          <mxGeometry x="36" y="1350" width="120" height="50" as="geometry" />
        </mxCell>
        <mxCell id="lTkOZprfKFM3OkyKb2s1-68" value="" style="strokeWidth=2;html=1;shape=mxgraph.flowchart.decision;whiteSpace=wrap;" parent="lTkOZprfKFM3OkyKb2s1-6" vertex="1">
          <mxGeometry x="40" y="1430" width="110" height="50" as="geometry" />
        </mxCell>
        <mxCell id="lTkOZprfKFM3OkyKb2s1-70" style="edgeStyle=orthogonalEdgeStyle;rounded=0;orthogonalLoop=1;jettySize=auto;html=1;exitX=0.5;exitY=1;exitDx=0;exitDy=0;exitPerimeter=0;entryX=1;entryY=0.5;entryDx=0;entryDy=0;entryPerimeter=0;" parent="lTkOZprfKFM3OkyKb2s1-6" source="lTkOZprfKFM3OkyKb2s1-68" target="lTkOZprfKFM3OkyKb2s1-53" edge="1">
          <mxGeometry relative="1" as="geometry">
            <Array as="points">
              <mxPoint x="95" y="1500" />
              <mxPoint x="180" y="1500" />
              <mxPoint x="180" y="1135" />
            </Array>
          </mxGeometry>
        </mxCell>
        <mxCell id="lTkOZprfKFM3OkyKb2s1-71" style="edgeStyle=orthogonalEdgeStyle;rounded=0;orthogonalLoop=1;jettySize=auto;html=1;exitX=1;exitY=0.5;exitDx=0;exitDy=0;exitPerimeter=0;entryX=1;entryY=0.5;entryDx=0;entryDy=0;entryPerimeter=0;" parent="lTkOZprfKFM3OkyKb2s1-6" source="lTkOZprfKFM3OkyKb2s1-62" target="lTkOZprfKFM3OkyKb2s1-68" edge="1">
          <mxGeometry relative="1" as="geometry">
            <Array as="points">
              <mxPoint x="170" y="1295" />
              <mxPoint x="170" y="1455" />
            </Array>
          </mxGeometry>
        </mxCell>
        <mxCell id="lTkOZprfKFM3OkyKb2s1-7" value="" style="html=1;shape=mxgraph.sysml.actFinal;strokeWidth=2;verticalLabelPosition=bottom;verticalAlignment=top;" parent="lTkOZprfKFM3OkyKb2s1-6" vertex="1">
          <mxGeometry x="65" y="1570" width="30" height="30" as="geometry" />
        </mxCell>
        <mxCell id="lTkOZprfKFM3OkyKb2s1-79" value="" style="endArrow=classic;html=1;rounded=0;" parent="lTkOZprfKFM3OkyKb2s1-6" edge="1">
          <mxGeometry width="50" height="50" relative="1" as="geometry">
            <mxPoint x="80" y="1550" as="sourcePoint" />
            <mxPoint x="80" y="1570" as="targetPoint" />
          </mxGeometry>
        </mxCell>
        <mxCell id="lTkOZprfKFM3OkyKb2s1-50" style="edgeStyle=orthogonalEdgeStyle;rounded=0;orthogonalLoop=1;jettySize=auto;html=1;exitX=0.5;exitY=1;exitDx=0;exitDy=0;exitPerimeter=0;" parent="1" source="lTkOZprfKFM3OkyKb2s1-45" target="lTkOZprfKFM3OkyKb2s1-49" edge="1">
          <mxGeometry relative="1" as="geometry">
            <Array as="points">
              <mxPoint x="287" y="1060" />
              <mxPoint x="400" y="1060" />
            </Array>
          </mxGeometry>
        </mxCell>
        <mxCell id="lTkOZprfKFM3OkyKb2s1-54" value="" style="endArrow=classic;html=1;rounded=0;exitX=0.165;exitY=1.006;exitDx=0;exitDy=0;exitPerimeter=0;entryX=0.5;entryY=0;entryDx=0;entryDy=0;entryPerimeter=0;" parent="1" target="lTkOZprfKFM3OkyKb2s1-51" edge="1">
          <mxGeometry width="50" height="50" relative="1" as="geometry">
            <mxPoint x="280" y="1100" as="sourcePoint" />
            <mxPoint x="280" y="1130" as="targetPoint" />
          </mxGeometry>
        </mxCell>
      </root>
    </mxGraphModel>
  </diagram>
</mxfile>
